<?xml version="1.0" encoding="UTF-8" standalone="no"?>
<svg
   xmlns:dc="http://purl.org/dc/elements/1.1/"
   xmlns:cc="http://creativecommons.org/ns#"
   xmlns:rdf="http://www.w3.org/1999/02/22-rdf-syntax-ns#"
   xmlns:svg="http://www.w3.org/2000/svg"
   xmlns="http://www.w3.org/2000/svg"
   xmlns:sodipodi="http://sodipodi.sourceforge.net/DTD/sodipodi-0.dtd"
   xmlns:inkscape="http://www.inkscape.org/namespaces/inkscape"
   height="64"
   id="Layer_1"
   version="1.1"
   viewBox="0 0 64 64.000001"
   width="64"
   xml:space="preserve"
   inkscape:version="0.91 r13725"
   sodipodi:docname="1463707765_folder.svg"
   inkscape:export-filename="/home/max/aaa"
   inkscape:export-xdpi="1080"
   inkscape:export-ydpi="1080"><metadata
     id="metadata52"><rdf:RDF><cc:Work
         rdf:about=""><dc:format>image/svg+xml</dc:format><dc:type
           rdf:resource="http://purl.org/dc/dcmitype/StillImage" /><dc:title></dc:title></cc:Work></rdf:RDF></metadata><defs
     id="defs50" /><sodipodi:namedview
     pagecolor="#ffffff"
     bordercolor="#666666"
     borderopacity="1"
     objecttolerance="10"
     gridtolerance="10"
     guidetolerance="10"
     inkscape:pageopacity="0"
     inkscape:pageshadow="2"
     inkscape:window-width="1855"
     inkscape:window-height="1056"
     id="namedview48"
     showgrid="false"
     showborder="true"
     inkscape:zoom="2.7812403"
     inkscape:cx="15.100836"
     inkscape:cy="45.827549"
     inkscape:window-x="65"
     inkscape:window-y="24"
     inkscape:window-maximized="1"
     inkscape:current-layer="Layer_1"
     inkscape:showpageshadow="false" /><g
     id="g4180"
     transform="matrix(1,0,0,1.037037,0,-6.3703658)"><g
       transform="matrix(1,0,0,0.89998505,0,9.999997)"
       id="Folder"><g
         id="g4"><path
           inkscape:connector-curvature="0"
           id="path6"
           style="clip-rule:evenodd;fill:#cca352;fill-rule:evenodd"
           d="M 60,4.001 24,4.001 C 24,1.792 22.209,0 20,0 L 4,0 C 1.791,0 0,1.792 0,4.001 L 0,8 0,14.001 0,16.001 C 0,18.21 1.791,20.001 4,20.001 L 60,20.001 C 62.209,20.001 64,18.21 64,16.001 L 64,8 C 64,5.791 62.209,4.001 60,4.001 Z" /></g></g><g
       transform="matrix(1,0,0,0.94050407,0,7.5688122)"
       id="Folder_1_"><g
         id="g14"><path
           inkscape:connector-curvature="0"
           id="path16"
           style="fill:#ffcc66"
           d="M 60,12.001 4,12.001 C 1.791,12.001 0,13.792 0,16.001 L 0,56.001 C 0,58.21 1.791,60.001 4,60.001 L 60,60.001 C 62.209,60.001 64,58.21 64,56.001 L 64,16.001 C 64,13.792 62.209,12.001 60,12.001 Z" /></g></g></g><g
     id="g18"
     transform="translate(0,3.9990005)" /><g
     id="g20"
     transform="translate(0,3.9990005)" /><g
     id="g22"
     transform="translate(0,3.9990005)" /><g
     id="g24"
     transform="translate(0,3.9990005)" /><g
     id="g26"
     transform="translate(0,3.9990005)" /><g
     id="g28"
     transform="translate(0,3.9990005)" /><g
     id="g30"
     transform="translate(0,3.9990005)" /><g
     id="g32"
     transform="translate(0,3.9990005)" /><g
     id="g34"
     transform="translate(0,3.9990005)" /><g
     id="g36"
     transform="translate(0,3.9990005)" /><g
     id="g38"
     transform="translate(0,3.9990005)" /><g
     id="g40"
     transform="translate(0,3.9990005)" /><g
     id="g42"
     transform="translate(0,3.9990005)" /><g
     id="g44"
     transform="translate(0,3.9990005)" /><g
     id="g46"
     transform="translate(0,3.9990005)" /></svg>