<?xml version="1.0" encoding="UTF-8" standalone="no"?>
<svg
   xmlns:dc="http://purl.org/dc/elements/1.1/"
   xmlns:cc="http://creativecommons.org/ns#"
   xmlns:rdf="http://www.w3.org/1999/02/22-rdf-syntax-ns#"
   xmlns:svg="http://www.w3.org/2000/svg"
   xmlns="http://www.w3.org/2000/svg"
   xmlns:sodipodi="http://sodipodi.sourceforge.net/DTD/sodipodi-0.dtd"
   xmlns:inkscape="http://www.inkscape.org/namespaces/inkscape"
   enable-background="new 0 0 64 64"
   height="48"
   id="Layer_1"
   version="1.1"
   viewBox="0 0 48 48"
   width="48"
   xml:space="preserve"
   inkscape:version="0.91 r13725"
   sodipodi:docname="share-w24h24.svg"><metadata
     id="metadata9"><rdf:RDF><cc:Work
         rdf:about=""><dc:format>image/svg+xml</dc:format><dc:type
           rdf:resource="http://purl.org/dc/dcmitype/StillImage" /><dc:title></dc:title></cc:Work></rdf:RDF></metadata><defs
     id="defs7" /><sodipodi:namedview
     pagecolor="#ffffff"
     bordercolor="#666666"
     borderopacity="1"
     objecttolerance="10"
     gridtolerance="10"
     guidetolerance="10"
     inkscape:pageopacity="0"
     inkscape:pageshadow="2"
     inkscape:window-width="1855"
     inkscape:window-height="1056"
     id="namedview5"
     showgrid="false"
     inkscape:zoom="7.375"
     inkscape:cx="28.2169"
     inkscape:cy="39.100966"
     inkscape:window-x="65"
     inkscape:window-y="24"
     inkscape:window-maximized="1"
     inkscape:current-layer="Layer_1" /><path
     d="M 39.781044,31.282105 C 37.436568,31.282105 35.327832,32.285219 33.830604,33.886188 L 16.336333,25.175148 C 16.396499,24.765877 16.437924,24.351591 16.437924,23.925268 16.437924,23.509979 16.398472,23.104721 16.341265,22.706485 L 33.809892,14.09074 C 35.308104,15.70475 37.426704,16.717895 39.781044,16.717895 44.320056,16.717895 48,12.975277 48,8.3589476 48,3.7416146 44.320056,0 39.781044,0 35.24202,0 31.562076,3.7416146 31.562076,8.3589476 31.562076,8.7742367 31.601532,9.1784916 31.658736,9.5777309 L 14.190112,18.193476 C 12.6919,16.579465 10.574282,15.56632 8.218962,15.56632 3.678954,15.56632 0,19.308938 0,23.925268 0,28.542601 3.678954,32.284216 8.218962,32.284216 10.563432,32.284216 12.672174,31.281102 14.1694,29.680132 L 31.663668,38.391173 C 31.6035,38.79944 31.562076,39.214729 31.562076,39.641052 31.562076,44.258385 35.24202,48 39.781044,48 44.320056,48 48,44.258385 48,39.641052 48,35.023719 44.320056,31.282105 39.781044,31.282105 Z"
     id="path3"
     inkscape:connector-curvature="0"
     style="stroke:none;fill:#ffffff;fill-opacity:1" /></svg>