<?xml version="1.0" encoding="UTF-8" standalone="no"?>
<svg
   xmlns:dc="http://purl.org/dc/elements/1.1/"
   xmlns:cc="http://creativecommons.org/ns#"
   xmlns:rdf="http://www.w3.org/1999/02/22-rdf-syntax-ns#"
   xmlns:svg="http://www.w3.org/2000/svg"
   xmlns="http://www.w3.org/2000/svg"
   xmlns:sodipodi="http://sodipodi.sourceforge.net/DTD/sodipodi-0.dtd"
   xmlns:inkscape="http://www.inkscape.org/namespaces/inkscape"
   height="48"
   preserveAspectRatio="xMidYMid"
   viewBox="0 0 48 48"
   width="48"
   id="svg2"
   version="1.1"
   inkscape:version="0.91 r13725"
   sodipodi:docname="video-w24h24.svg">
  <metadata
     id="metadata18">
    <rdf:RDF>
      <cc:Work
         rdf:about="">
        <dc:format>image/svg+xml</dc:format>
        <dc:type
           rdf:resource="http://purl.org/dc/dcmitype/StillImage" />
        <dc:title />
      </cc:Work>
    </rdf:RDF>
  </metadata>
  <sodipodi:namedview
     pagecolor="#ffffff"
     bordercolor="#666666"
     borderopacity="1"
     objecttolerance="10"
     gridtolerance="10"
     guidetolerance="10"
     inkscape:pageopacity="0"
     inkscape:pageshadow="2"
     inkscape:window-width="1855"
     inkscape:window-height="1056"
     id="namedview16"
     showgrid="false"
     inkscape:zoom="2.6074563"
     inkscape:cx="72.182142"
     inkscape:cy="63.900411"
     inkscape:window-x="65"
     inkscape:window-y="24"
     inkscape:window-maximized="1"
     inkscape:current-layer="svg2" />
  <defs
     id="defs4">
    <style
       id="style6">
      .cls-1 {
        fill: #cb0606;
      }

      .cls-1, .cls-2, .cls-3 {
        fill-rule: evenodd;
      }

      .cls-2 {
        fill: #fb8d8d;
      }

      .cls-3 {
        fill: #fff;
      }
    </style>
  </defs>
  <path
     style="fill:#5a719c;fill-rule:evenodd;stroke:none;fill-opacity:1"
     inkscape:connector-curvature="0"
     id="path10"
     d="M 44,12.6315 44,44.21025 C 44,46.3035 42.146939,48 39.862041,48 L 8.1379592,48 C 5.8522449,48 4,46.3035 4,44.21025 L 4,3.78975 C 4,1.6965 5.8522449,0 8.1379592,0 L 30.206531,0 44,12.6315 Z"
     class="cls-1" />
  <path
     style="fill:#6988c2;fill-rule:evenodd;stroke:none;fill-opacity:1"
     inkscape:connector-curvature="0"
     id="path12"
     d="M 44,11.92425 44,13.49625 32.724082,13.49625 C 30.389388,13.49625 29.312653,11.75625 29.312653,9.6105 L 29.312653,0 31.020408,0 44,11.92425 Z"
     class="cls-2" />
  <g
     transform="matrix(0.02658408,0,0,0.02658408,10.706631,13.793115)"
     id="g6"
     style="fill:#ffffff;fill-opacity:1">
    <path
       inkscape:connector-curvature="0"
       d="M 391.2,649.9 636.2,527.4 C 658.7,516.1 658.7,483.9 636.2,472.6 L 391.2,350.1 C 370.8,339.9 346.9,354.7 346.9,377.5 L 346.9,622.5 C 346.9,645.3 370.8,660 391.2,649.9 L 391.2,649.9 391.2,649.9 Z M 898.4,132.5 101.6,132.5 C 51.2,132.5 10,174 10,224.8 L 10,775.1 C 10,826.1 50.9,867.5 101.6,867.5 L 898.5,867.5 C 948.9,867.5 990.1,826 990.1,775.1 L 990.1,224.8 C 990,173.8 949.1,132.5 898.4,132.5 L 898.4,132.5 898.4,132.5 Z M 193.8,775.3 C 193.8,792.4 180.7,806.2 162.9,806.2 L 102.3,806.2 C 85.2,806.2 71.4,793.1 71.4,775.3 L 71.4,714.7 C 71.4,697.6 84.5,683.8 102.3,683.8 L 163,683.8 C 180,683.8 193.9,696.9 193.9,714.7 L 193.9,775.3 193.8,775.3 Z M 193.8,530.3 C 193.8,547.4 180.7,561.2 162.9,561.2 L 102.3,561.2 C 85.2,561.2 71.4,548.1 71.4,530.3 L 71.4,469.7 C 71.4,452.6 84.5,438.8 102.3,438.8 L 163,438.8 C 180,438.8 193.9,451.9 193.9,469.7 L 193.9,530.3 193.8,530.3 Z M 193.8,285.3 C 193.8,302.4 180.7,316.2 162.9,316.2 L 102.3,316.2 C 85.2,316.2 71.4,303.1 71.4,285.3 L 71.4,224.7 C 71.4,207.6 84.5,193.8 102.3,193.8 L 163,193.8 C 180,193.8 193.9,206.9 193.9,224.7 L 193.9,285.3 193.8,285.3 Z M 745,806.3 255,806.3 255,193.7 745,193.7 745,806.3 Z M 928.8,775.3 C 928.8,792.4 915.7,806.2 897.9,806.2 L 837.2,806.2 C 820.2,806.2 806.3,793.1 806.3,775.3 L 806.3,714.7 C 806.3,697.6 819.4,683.8 837.2,683.8 L 897.9,683.8 C 914.9,683.8 928.8,696.9 928.8,714.7 L 928.8,775.3 Z M 928.8,530.3 C 928.8,547.4 915.7,561.2 897.9,561.2 L 837.2,561.2 C 820.2,561.2 806.3,548.1 806.3,530.3 L 806.3,469.7 C 806.3,452.6 819.4,438.8 837.2,438.8 L 897.9,438.8 C 914.9,438.8 928.8,451.9 928.8,469.7 L 928.8,530.3 Z M 928.8,285.3 C 928.8,302.4 915.7,316.2 897.9,316.2 L 837.2,316.2 C 820.2,316.2 806.3,303.1 806.3,285.3 L 806.3,224.7 C 806.3,207.6 819.4,193.8 837.2,193.8 L 897.9,193.8 C 914.9,193.8 928.8,206.9 928.8,224.7 L 928.8,285.3 Z"
       id="path8"
       style="fill:#ffffff;fill-opacity:1" />
  </g>
</svg>
